<mxfile host="app.diagrams.net" modified="2023-05-12T08:46:37.003Z" agent="Mozilla/5.0 (Macintosh; Intel Mac OS X 10_15_7) AppleWebKit/537.36 (KHTML, like Gecko) Chrome/114.0.0.0 Safari/537.36 Edg/114.0.1788.0  uacq" etag="2f2Hs7u5-IMO2KiJ6-PR" version="21.2.1" type="github">
  <diagram name="第 1 页" id="ICOvqZ3yyutcivsw5udB">
    <mxGraphModel dx="1434" dy="723" grid="1" gridSize="10" guides="1" tooltips="1" connect="1" arrows="1" fold="1" page="1" pageScale="1" pageWidth="20000" pageHeight="20000" math="0" shadow="0">
      <root>
        <mxCell id="0" />
        <mxCell id="1" parent="0" />
        <mxCell id="W6VdYjZ4QfinrksOY_2K-1" value="&lt;font style=&quot;font-size: 18px;&quot;&gt;Source Port&lt;/font&gt;" style="rounded=0;whiteSpace=wrap;html=1;" vertex="1" parent="1">
          <mxGeometry x="80" y="270" width="640" height="60" as="geometry" />
        </mxCell>
        <mxCell id="W6VdYjZ4QfinrksOY_2K-2" value="&lt;font style=&quot;font-size: 18px;&quot;&gt;Destination Port&lt;/font&gt;" style="rounded=0;whiteSpace=wrap;html=1;" vertex="1" parent="1">
          <mxGeometry x="720" y="270" width="640" height="60" as="geometry" />
        </mxCell>
        <mxCell id="W6VdYjZ4QfinrksOY_2K-3" value="&lt;font style=&quot;font-size: 18px;&quot;&gt;2 字节&lt;/font&gt;" style="text;html=1;strokeColor=none;fillColor=none;align=center;verticalAlign=middle;whiteSpace=wrap;rounded=0;" vertex="1" parent="1">
          <mxGeometry x="370" y="220" width="60" height="30" as="geometry" />
        </mxCell>
        <mxCell id="W6VdYjZ4QfinrksOY_2K-4" value="&lt;font style=&quot;font-size: 18px;&quot;&gt;2 字节&lt;/font&gt;" style="text;html=1;strokeColor=none;fillColor=none;align=center;verticalAlign=middle;whiteSpace=wrap;rounded=0;" vertex="1" parent="1">
          <mxGeometry x="1010" y="220" width="60" height="30" as="geometry" />
        </mxCell>
        <mxCell id="W6VdYjZ4QfinrksOY_2K-5" value="&lt;font style=&quot;font-size: 18px;&quot;&gt;Sequence Number&lt;/font&gt;" style="rounded=0;whiteSpace=wrap;html=1;" vertex="1" parent="1">
          <mxGeometry x="80" y="330" width="1280" height="60" as="geometry" />
        </mxCell>
        <mxCell id="W6VdYjZ4QfinrksOY_2K-6" value="&lt;font style=&quot;font-size: 18px;&quot;&gt;Acknowledgment Number&lt;/font&gt;" style="rounded=0;whiteSpace=wrap;html=1;" vertex="1" parent="1">
          <mxGeometry x="80" y="390" width="1280" height="60" as="geometry" />
        </mxCell>
        <mxCell id="W6VdYjZ4QfinrksOY_2K-7" value="&lt;font style=&quot;font-size: 18px;&quot;&gt;&lt;b&gt;一个方格表示一个 bit&lt;/b&gt;&lt;/font&gt;" style="text;html=1;strokeColor=none;fillColor=none;align=center;verticalAlign=middle;whiteSpace=wrap;rounded=0;" vertex="1" parent="1">
          <mxGeometry x="580" y="160" width="280" height="30" as="geometry" />
        </mxCell>
        <mxCell id="W6VdYjZ4QfinrksOY_2K-8" value="&lt;font style=&quot;font-size: 18px;&quot;&gt;Header Length&lt;/font&gt;" style="rounded=0;whiteSpace=wrap;html=1;" vertex="1" parent="1">
          <mxGeometry x="80" y="450" width="160" height="60" as="geometry" />
        </mxCell>
        <mxCell id="W6VdYjZ4QfinrksOY_2K-9" value="&lt;font style=&quot;font-size: 18px;&quot;&gt;Flags&lt;/font&gt;" style="rounded=0;whiteSpace=wrap;html=1;" vertex="1" parent="1">
          <mxGeometry x="240" y="450" width="480" height="60" as="geometry" />
        </mxCell>
        <mxCell id="W6VdYjZ4QfinrksOY_2K-10" value="&lt;font style=&quot;font-size: 18px;&quot;&gt;Window&lt;/font&gt;" style="rounded=0;whiteSpace=wrap;html=1;" vertex="1" parent="1">
          <mxGeometry x="720" y="450" width="640" height="60" as="geometry" />
        </mxCell>
        <mxCell id="W6VdYjZ4QfinrksOY_2K-11" value="&lt;font style=&quot;font-size: 18px;&quot;&gt;Checksum&lt;/font&gt;" style="rounded=0;whiteSpace=wrap;html=1;" vertex="1" parent="1">
          <mxGeometry x="80" y="510" width="640" height="60" as="geometry" />
        </mxCell>
        <mxCell id="W6VdYjZ4QfinrksOY_2K-12" value="&lt;font style=&quot;font-size: 18px;&quot;&gt;Checksum&lt;/font&gt;" style="rounded=0;whiteSpace=wrap;html=1;" vertex="1" parent="1">
          <mxGeometry x="720" y="510" width="640" height="60" as="geometry" />
        </mxCell>
        <mxCell id="W6VdYjZ4QfinrksOY_2K-14" value="&lt;ul style=&quot;font-size: 18px;&quot;&gt;&lt;li style=&quot;font-size: 18px;&quot;&gt;3 bit：Reserved&lt;/li&gt;&lt;li style=&quot;font-size: 18px;&quot;&gt;1 bit：Accurate ECN&lt;/li&gt;&lt;li style=&quot;font-size: 18px;&quot;&gt;1 bit：Congestion Window Reduced&lt;/li&gt;&lt;li style=&quot;font-size: 18px;&quot;&gt;1 bit：ECN-Echo&lt;/li&gt;&lt;li style=&quot;font-size: 18px;&quot;&gt;1 bit：Urgent&lt;/li&gt;&lt;li style=&quot;font-size: 18px;&quot;&gt;1 bit：Acknowledgment&lt;/li&gt;&lt;li style=&quot;font-size: 18px;&quot;&gt;1 bit：Push&lt;/li&gt;&lt;li style=&quot;font-size: 18px;&quot;&gt;1 bit：Reset&lt;/li&gt;&lt;li style=&quot;font-size: 18px;&quot;&gt;1 bit：Syn&lt;/li&gt;&lt;li style=&quot;font-size: 18px;&quot;&gt;1 bit：Fin&lt;/li&gt;&lt;/ul&gt;" style="text;strokeColor=none;fillColor=none;html=1;whiteSpace=wrap;verticalAlign=middle;overflow=hidden;fontSize=18;" vertex="1" parent="1">
          <mxGeometry x="250" y="610" width="510" height="240" as="geometry" />
        </mxCell>
        <mxCell id="W6VdYjZ4QfinrksOY_2K-19" value="" style="endArrow=classic;html=1;rounded=0;exitX=0.329;exitY=-0.012;exitDx=0;exitDy=0;exitPerimeter=0;" edge="1" parent="1" source="W6VdYjZ4QfinrksOY_2K-14" target="W6VdYjZ4QfinrksOY_2K-9">
          <mxGeometry width="50" height="50" relative="1" as="geometry">
            <mxPoint x="600" y="740" as="sourcePoint" />
            <mxPoint x="650" y="690" as="targetPoint" />
          </mxGeometry>
        </mxCell>
      </root>
    </mxGraphModel>
  </diagram>
</mxfile>
